<svg fill="#fff" xmlns="http://www.w3.org/2000/svg" viewBox="0 0 28.46 28.46"><g id="layer_2" data-name="layer 2"><g id="layer_1-2" data-name="layer 1"><rect x="0.5" y="0.5" width="27.46" height="27.46" rx="12" style="fill:none;stroke:#fff;stroke-miterlimit:10"/><rect x="2.23" y="2.23" width="24" height="24" rx="12" style="fill:none;stroke:#fff;stroke-miterlimit:10"/><path d="M8.54,17c0,.25.16.35.4.35h3.94a.42.42,0,0,1,.44.47.44.44,0,0,1-.44.49H8.63c-.79,0-1.13-.35-1.13-1.18V10.92c0-.84.34-1.18,1.13-1.18h4.15a.42.42,0,0,1,.44.47.43.43,0,0,1-.44.48H8.91c-.26,0-.37.12-.37.39v2.27h3.75a.43.43,0,0,1,.43.48.43.43,0,0,1-.43.46H8.54Z"/><path d="M15.08,18.06a.43.43,0,0,1-.43.31l-.22,0a.49.49,0,0,1-.38-.45.63.63,0,0,1,0-.19l3-7.51a.75.75,0,0,1,.76-.52.76.76,0,0,1,.78.52l3,7.53a.43.43,0,0,1,0,.19.49.49,0,0,1-.4.44.63.63,0,0,1-.19,0,.47.47,0,0,1-.46-.31l-.86-2.27H15.93Zm4.33-3.19-1.23-3.2c-.12-.32-.24-.67-.34-1a9.94,9.94,0,0,1-.34,1l-1.24,3.19Z"/></g></g></svg>
